<svg xmlns="http://www.w3.org/2000/svg" viewBox="0 0 64 64">
  <rect width="64" height="64" rx="16" fill="#005baa"/>
  <path fill="#ffd23f" d="M17 18.5c5.4 0 10.3 1.2 15 4 4.7-2.8 9.6-4 15-4 1.7 0 3 1.3 3 3v26.2c0 .9-.7 1.6-1.6 1.5-5.4-.5-10.1.3-14.6 2.4a4.2 4.2 0 0 1-3.6 0c-4.5-2.1-9.2-2.9-14.6-2.4-.9.1-1.6-.6-1.6-1.5V21.5c0-1.7 1.3-3 3-3Zm2.5 5.1v19.9c3.7-.1 7.1.5 10.3 1.9V26.7a24 24 0 0 0-10.3-3.1Zm24.9 0c-3.7.2-7.1 1.2-10.2 3.1v18.7c3.2-1.4 6.6-2 10.2-1.9V23.6Z"/>
  <path fill="#fff7d1" d="M24.1 29.9h3.7v2.6h-3.7v-2.6Zm0 6h3.7v2.6h-3.7v-2.6Zm12.1-6h3.7v2.6h-3.7v-2.6Zm0 6h3.7v2.6h-3.7v-2.6Z"/>
</svg>
